<svg xmlns="http://www.w3.org/2000/svg" viewBox="0 0 256 256" width="256" height="256">
  <!-- Black background circle -->
  <circle cx="128" cy="128" r="128" fill="#000000"/>
  
  <!-- Yellow steering wheel -->
  <!-- Using a standard steering wheel path adjusted for the center -->
  <path d="M128,32A96,96,0,1,0,224,128,96.11,96.11,0,0,0,128,32Zm0,176a80.1,80.1,0,0,1-80-80c0-10.2,1.96-19.93,5.45-28.94l41.35,41.35A36.36,36.36,0,0,0,113.45,162.2v44.25A80.6,80.6,0,0,1,128,208Zm29.09-45.8a36.36,36.36,0,0,0,18.62-21.76l41.35-41.35c3.49,9,5.45,18.74,5.45,28.94A80.1,80.1,0,0,1,157.09,162.2ZM128,149.82a21.82,21.82,0,1,1,21.82-21.82A21.82,21.82,0,0,1,128,149.82Zm-40.23-69.24A79.72,79.72,0,0,1,128,61.09a79.72,79.72,0,0,1,40.23,17.94l-30.74,30.74a36.25,36.25,0,0,0-19,0Z" fill="#FFD600"/>
</svg>
